# xmcd CD database file
#
# Track frame offsets:
#	150
#	19171
#	36280
#	56324
#	75228
#	89831
#	108555
#	132063
#	150826
#	162205
#	180190
#	196329
#
# Disc length: 2839 seconds
#
# Revision: 1
# Processed by: cddbd v1.5.1PL0 Copyright (c) Steve Scherf et al.
# Submitted via: CDex 1.51
#
DISCID=840b150c
DTITLE=Свиридова - Игра в классики
DYEAR=1900
DGENRE=
TTITLE0=Если все не так
TTITLE1=Без него
TTITLE2=что со мной
TTITLE3=любимый мой
TTITLE4=мое сердце
TTITLE5=лето
TTITLE6=самба прошедшей любви
TTITLE7=это ведь я (римейк)
TTITLE8=манечка
TTITLE9=журчат ручьи
TTITLE10=мистер икс
TTITLE11=без него (ремикс)
EXTD=
EXTT0=
EXTT1=
EXTT2=
EXTT3=
EXTT4=
EXTT5=
EXTT6=
EXTT7=
EXTT8=
EXTT9=
EXTT10=
EXTT11=
PLAYORDER=
